<svg width="138" height="48" viewBox="0 0 138 48" fill="none" xmlns="http://www.w3.org/2000/svg">
<g filter="url(#filter0_d_941_2473)">
<path fill-rule="evenodd" clip-rule="evenodd" d="M36.4405 31.587V9.73893H48.2693V12.4779H38.8899V19.195H47.3134V21.9347H38.8899V28.7824H48.9266V31.5213H36.4405V31.587ZM61.3529 31.587L57.2902 25.7831L53.2275 31.587H50.3609L55.9164 23.826L50.0615 15.804H53.288L57.2902 21.8049L61.3529 15.804H64.5188L58.9633 23.826L64.2208 31.587H61.3529ZM68.1638 29.239V40H65.7143V23.891C65.7143 19.7822 68.5815 15.413 73.0627 15.413C77.6024 15.413 81.0078 18.5437 81.0078 23.6955C81.0078 28.7175 77.5432 32.1742 73.6002 32.1742C71.6883 32.1742 69.1198 31.2609 68.1638 29.239ZM78.4393 23.6955C78.4393 20.1739 76.3484 18.0878 72.6443 18.2825C70.8521 18.3482 68.1046 19.7822 68.3427 24.8049C68.4026 26.4352 69.956 29.4994 73.3614 29.4994C76.2885 29.4994 78.4393 27.6737 78.4393 23.6955ZM83.0994 31.587V15.804H85.5489V17.4999C86.7437 15.9995 88.595 15.4779 90.5669 15.4779V18.3482C90.2682 18.2825 87.3404 17.8908 85.5489 22.0652V31.6526H83.0994V31.587ZM91.2241 23.6962C91.2241 19.1301 94.2111 15.413 98.333 15.413C103.471 15.413 105.383 19.1308 105.383 23.891V25.1959H93.9124C94.0914 28.196 96.5408 29.7605 98.8114 29.6956C100.484 29.6307 101.619 29.1092 102.815 27.805L104.427 29.6315C102.934 31.196 101.022 32.2391 98.6923 32.2391C94.3309 32.1742 91.2241 28.6526 91.2241 23.6962ZM98.1541 18.0878C95.8244 18.0878 94.0322 20.3037 93.9124 22.7181H102.814C102.814 20.3694 101.262 18.0878 98.1541 18.0878ZM106.638 29.3696L108.43 27.6088C108.37 27.6088 109.326 28.6526 109.446 28.7175C109.864 29.1092 110.282 29.3696 110.82 29.5001C112.373 29.9568 115.181 29.8262 115.42 27.4782C115.539 26.174 114.643 25.4563 113.628 24.9997C112.313 24.4789 110.879 24.2827 109.565 23.6306C108.071 22.9136 107.116 21.6743 107.116 19.8486C107.116 15.0862 113.329 14.3043 116.137 16.5217C116.256 16.6523 117.63 18.0214 117.571 18.0214L115.778 19.5875C114.883 18.4131 114.046 17.8259 112.134 17.8259C111.178 17.8259 109.864 18.2825 109.625 19.3912C109.267 20.9565 110.879 21.5437 111.955 21.8698C113.389 22.2607 114.942 22.5219 116.196 23.3694C117.929 24.5438 118.348 27.0865 117.69 29.0435C116.973 31.196 114.822 32.0436 112.911 32.1077C110.641 32.2391 108.669 31.4564 107.056 29.6964C106.936 29.6964 106.638 29.3696 106.638 29.3696ZM119.243 29.3696L121.036 27.6088C120.976 27.6088 121.932 28.6526 122.051 28.7175C122.469 29.1092 122.888 29.3696 123.425 29.5001C124.978 29.9568 127.787 29.8262 128.026 27.4782C128.144 26.174 127.249 25.4563 126.233 24.9997C124.919 24.4789 123.485 24.2827 122.171 23.6306C120.678 22.9136 119.722 21.6743 119.722 19.8486C119.722 15.0862 125.935 14.3043 128.742 16.5217C128.862 16.6523 130.236 18.0214 130.177 18.0214L128.385 19.5875C127.488 18.4131 126.651 17.8259 124.74 17.8259C123.784 17.8259 122.47 18.2825 122.23 19.3912C121.872 20.9565 123.485 21.5437 124.56 21.8698C125.994 22.2607 127.548 22.5219 128.802 23.3694C130.535 24.5438 130.954 27.0865 130.296 29.0435C129.579 31.196 127.429 32.0436 125.516 32.1077C123.246 32.2391 121.275 31.4564 119.662 29.6964C119.542 29.6964 119.244 29.3696 119.244 29.3696H119.243ZM130.893 15.804V14.1081H130.356V13.782H131.789V14.1081H131.252V15.804H130.893ZM133.582 15.804V14.2394L133.044 15.804H132.924L132.387 14.2394V15.804H132.088V13.782H132.566L133.044 15.1526L133.522 13.782H134V15.804H133.582ZM19.8317 31.587L18.0395 26.3695H8.36142L6.56853 31.587H4L11.7669 9.73893H14.5742L22.2819 31.587H19.8317ZM13.0807 12.8696L9.43715 23.6962H17.0237L13.0807 12.8696ZM23.8944 31.587H26.4038V9.73968H23.8944V31.587ZM30.1671 31.587H32.6765V16.1308H30.1671V31.587ZM35.066 11.1088V10.8476C33.1548 10.7827 31.6007 9.08684 31.5415 7H31.183C31.1231 9.08684 29.5697 10.7827 27.6585 10.8476V11.1088C29.5697 11.1737 31.1231 12.8696 31.183 14.9564H31.5415C31.6007 12.8696 33.1548 11.1737 35.066 11.1088Z" fill="white"/>
</g>
<defs>
<filter id="filter0_d_941_2473" x="0" y="0" width="138" height="55" filterUnits="userSpaceOnUse" color-interpolation-filters="sRGB">
<feFlood flood-opacity="0" result="BackgroundImageFix"/>
<feColorMatrix in="SourceAlpha" type="matrix" values="0 0 0 0 0 0 0 0 0 0 0 0 0 0 0 0 0 0 127 0" result="hardAlpha"/>
<feOffset dy="4"/>
<feGaussianBlur stdDeviation="2"/>
<feComposite in2="hardAlpha" operator="out"/>
<feColorMatrix type="matrix" values="0 0 0 0 0 0 0 0 0 0 0 0 0 0 0 0 0 0 0.25 0"/>
<feBlend mode="normal" in2="BackgroundImageFix" result="effect1_dropShadow_941_2473"/>
<feBlend mode="normal" in="SourceGraphic" in2="effect1_dropShadow_941_2473" result="shape"/>
</filter>
</defs>
</svg>
